<svg width="670" height="170" viewBox="0 0 670 170" fill="none" xmlns="http://www.w3.org/2000/svg">
<g filter="url(#filter0_d_64_2)">
<g clip-path="url(#clip0_64_2)">
<rect x="1" y="1" width="668" height="168" rx="16" fill="#171717"/>
<path d="M171.864 92.6484C171.864 87.6107 173.14 83.5391 175.694 80.4336C178.247 77.3281 181.223 75.7754 184.622 75.7754C186.002 75.7754 187.253 76.0514 188.375 76.6035C189.513 77.1383 190.41 77.7767 191.066 78.5186H195.698L192.877 93.9424C192.584 95.5986 192.705 96.7459 193.24 97.3843C193.775 98.0226 194.585 98.3504 195.672 98.3677C197.415 98.3677 198.838 97.3153 199.942 95.2104C201.064 93.1056 201.625 90.2503 201.625 86.6445C201.625 82.1071 200.124 78.2339 197.122 75.0249C194.137 71.8159 189.944 70.2114 184.544 70.2114C179.179 70.2114 174.693 72.2559 171.087 76.3447C167.499 80.4336 165.705 85.5059 165.705 91.5615C165.705 97.0824 167.162 101.318 170.078 104.268C173.011 107.218 176.815 108.693 181.491 108.693C183.665 108.693 185.511 108.478 187.029 108.046C188.564 107.615 189.841 107.089 190.859 106.468V112.291C189.772 113.05 188.478 113.61 186.977 113.973C185.493 114.352 183.665 114.542 181.491 114.542C175.09 114.542 169.586 112.446 164.98 108.253C160.391 104.061 158.096 98.3418 158.096 91.0957C158.096 83.8496 160.701 77.6128 165.912 72.3853C171.122 67.1577 177.333 64.5439 184.544 64.5439C191.67 64.5439 197.432 66.6401 201.832 70.8325C206.248 75.0249 208.457 80.1403 208.457 86.1787C208.457 91.182 207.188 95.2363 204.652 98.3418C202.116 101.447 198.89 103 194.974 103C192.8 103 191.006 102.577 189.591 101.732C188.176 100.869 187.167 99.7134 186.563 98.2642C185.873 99.7134 184.95 100.869 183.794 101.732C182.638 102.577 181.396 103 180.067 103C177.549 103 175.547 102.051 174.063 100.153C172.597 98.2555 171.864 95.7539 171.864 92.6484ZM179.343 92.4155C179.343 94.2098 179.576 95.5382 180.042 96.4009C180.525 97.2635 181.223 97.6948 182.138 97.6948C183.035 97.6948 183.828 97.3066 184.519 96.5303C185.209 95.7367 185.735 94.3651 186.097 92.4155L187.986 81.7017C187.607 81.3911 187.175 81.1496 186.692 80.9771C186.209 80.7873 185.718 80.6924 185.217 80.6924C183.544 80.6924 182.146 81.8311 181.025 84.1084C179.903 86.3685 179.343 89.1375 179.343 92.4155ZM210.346 78.0786H218.653L223.492 91.8979C223.665 92.3983 223.811 92.8813 223.932 93.3472C224.07 93.7957 224.174 94.1839 224.243 94.5117H224.346C224.415 94.1839 224.51 93.7957 224.631 93.3472C224.769 92.8813 224.916 92.3983 225.071 91.8979L230.04 78.0786H237.674L228.073 103H220.024L210.346 78.0786ZM239.796 94.0977V78.0786H248.284V93.2695C248.284 94.805 248.595 95.8747 249.216 96.4785C249.854 97.0651 250.725 97.3584 251.83 97.3584C252.813 97.3584 253.676 97.0651 254.417 96.4785C255.177 95.8747 255.772 95.1156 256.203 94.2012V78.0786H264.691V103H256.41L256.333 99.7651H256.281C255.573 100.921 254.547 101.853 253.201 102.56C251.855 103.25 250.242 103.595 248.362 103.595C245.826 103.595 243.764 102.862 242.177 101.396C240.59 99.929 239.796 97.4964 239.796 94.0977ZM268.521 90.8887V90.0605C268.521 86.196 269.746 83.1077 272.196 80.7959C274.646 78.484 277.881 77.3281 281.901 77.3281C285.869 77.3281 288.94 78.4323 291.114 80.6406C293.305 82.849 294.4 85.8768 294.4 89.7241V92.2085H273.361V87.7314H286.171V87.4209C286.171 86.2132 285.809 85.2126 285.084 84.4189C284.359 83.6253 283.272 83.2285 281.823 83.2285C280.236 83.2285 279.028 83.8065 278.2 84.9624C277.372 86.1011 276.958 87.5417 276.958 89.2842V91.0698C276.958 93.1574 277.407 94.7878 278.304 95.9609C279.201 97.1169 280.503 97.6948 282.211 97.6948C283.436 97.6948 284.472 97.4274 285.317 96.8926C286.18 96.3577 286.852 95.6763 287.335 94.8481L294.142 97.2549C293.331 99.2217 291.951 100.783 290.001 101.939C288.051 103.095 285.481 103.673 282.289 103.673C277.941 103.673 274.56 102.526 272.145 100.231C269.729 97.9191 268.521 94.805 268.521 90.8887ZM297.221 90.0864V83.2285H312.981V90.0864H297.221ZM316.863 103V78.0786H325.093L325.145 81.4688H325.248C326.076 80.2093 327.154 79.2345 328.483 78.5444C329.811 77.8371 331.338 77.4834 333.063 77.4834C334.858 77.4834 336.402 77.863 337.696 78.6221C339.007 79.3639 339.93 80.4595 340.465 81.9087H340.517C341.431 80.494 342.656 79.3984 344.191 78.6221C345.744 77.8457 347.444 77.4575 349.29 77.4575C351.791 77.4575 353.792 78.1908 355.293 79.6572C356.812 81.1064 357.571 83.5304 357.571 86.9292V103H349.083V87.8091C349.083 86.3599 348.789 85.3333 348.203 84.7295C347.633 84.1084 346.797 83.7979 345.692 83.7979C344.726 83.7979 343.881 84.0911 343.156 84.6777C342.449 85.2471 341.888 86.0062 341.474 86.9551V103H332.96V87.835C332.96 86.3857 332.667 85.3506 332.08 84.7295C331.493 84.1084 330.639 83.7979 329.518 83.7979C328.569 83.7979 327.741 84.0911 327.034 84.6777C326.326 85.2471 325.766 86.0148 325.352 86.981V103H316.863ZM361.297 95.7798C361.297 93.1919 362.315 91.1733 364.351 89.7241C366.404 88.2576 369.087 87.5244 372.399 87.5244H378.222V85.9976C378.222 84.8761 377.946 84.0049 377.394 83.3838C376.842 82.7454 375.91 82.4263 374.599 82.4263C373.305 82.4263 372.339 82.6937 371.701 83.2285C371.08 83.7633 370.769 84.4793 370.769 85.3765V85.8682L362.85 85.8423V85.2988C362.85 82.9525 363.954 81.0547 366.163 79.6055C368.388 78.139 371.382 77.4058 375.143 77.4058C378.938 77.4058 381.811 78.1131 383.76 79.5278C385.71 80.9253 386.685 83.1681 386.685 86.2563V97.3066C386.685 98.3418 386.771 99.3166 386.943 100.231C387.133 101.145 387.401 101.939 387.746 102.612V103H379.387C379.145 102.586 378.947 102.086 378.792 101.499C378.636 100.895 378.524 100.274 378.455 99.6357C377.886 100.602 376.868 101.473 375.401 102.25C373.952 103.009 372.132 103.388 369.941 103.388C367.336 103.388 365.24 102.75 363.652 101.473C362.082 100.196 361.297 98.2987 361.297 95.7798ZM369.682 95.1328C369.682 96.1852 369.984 97.0047 370.588 97.5913C371.209 98.1606 372.123 98.4453 373.331 98.4453C374.625 98.4453 375.764 98.0054 376.747 97.1255C377.73 96.2284 378.222 95.1932 378.222 94.02V91.9497H374.677C372.986 91.9497 371.727 92.1999 370.898 92.7002C370.088 93.2005 369.682 94.0114 369.682 95.1328ZM389.479 84.186V78.0786H406.792V84.186H389.479ZM393.31 95.314V79.8125L393.491 79.3467V70.6514H401.643V93.7612C401.643 95.3312 401.867 96.3577 402.315 96.8408C402.764 97.3066 403.445 97.5396 404.36 97.5396C404.808 97.5396 405.231 97.505 405.628 97.436C406.025 97.367 406.413 97.2549 406.792 97.0996V102.896C406.327 103.069 405.637 103.224 404.722 103.362C403.808 103.518 402.686 103.595 401.358 103.595C398.805 103.595 396.82 102.94 395.406 101.628C394.008 100.317 393.31 98.2124 393.31 95.314ZM408.94 90.8887V90.0605C408.94 86.196 410.165 83.1077 412.615 80.7959C415.065 78.484 418.3 77.3281 422.32 77.3281C426.288 77.3281 429.359 78.4323 431.533 80.6406C433.724 82.849 434.819 85.8768 434.819 89.7241V92.2085H413.78V87.7314H426.59V87.4209C426.59 86.2132 426.228 85.2126 425.503 84.4189C424.778 83.6253 423.691 83.2285 422.242 83.2285C420.655 83.2285 419.447 83.8065 418.619 84.9624C417.791 86.1011 417.377 87.5417 417.377 89.2842V91.0698C417.377 93.1574 417.826 94.7878 418.723 95.9609C419.62 97.1169 420.922 97.6948 422.63 97.6948C423.855 97.6948 424.89 97.4274 425.736 96.8926C426.598 96.3577 427.271 95.6763 427.754 94.8481L434.561 97.2549C433.75 99.2217 432.369 100.783 430.42 101.939C428.47 103.095 425.9 103.673 422.708 103.673C418.36 103.673 414.979 102.526 412.563 100.231C410.148 97.9191 408.94 94.805 408.94 90.8887ZM438.494 103V78.0786H446.931L446.982 81.2876H447.06C447.681 80.2007 448.518 79.3122 449.57 78.6221C450.623 77.9147 451.813 77.561 453.142 77.561C453.607 77.561 454.056 77.5955 454.487 77.6646C454.919 77.7336 455.221 77.8026 455.393 77.8716V84.3931C455.065 84.2723 454.686 84.186 454.254 84.1343C453.84 84.0825 453.375 84.0566 452.857 84.0566C451.718 84.0566 450.623 84.4103 449.57 85.1177C448.535 85.825 447.724 86.7567 447.138 87.9126V103H438.494ZM458.421 103V78.0786H466.987V103H458.421ZM457.903 69.9526C457.903 68.7277 458.317 67.7012 459.146 66.873C459.991 66.0277 461.181 65.605 462.717 65.605C464.27 65.605 465.451 66.019 466.262 66.8472C467.09 67.6753 467.504 68.7104 467.504 69.9526C467.504 71.1776 467.082 72.2214 466.236 73.084C465.408 73.9466 464.218 74.3779 462.665 74.3779C461.13 74.3779 459.948 73.9466 459.12 73.084C458.309 72.2214 457.903 71.1776 457.903 69.9526ZM471.024 95.7798C471.024 93.1919 472.042 91.1733 474.078 89.7241C476.131 88.2576 478.813 87.5244 482.126 87.5244H487.949V85.9976C487.949 84.8761 487.673 84.0049 487.121 83.3838C486.569 82.7454 485.637 82.4263 484.326 82.4263C483.032 82.4263 482.066 82.6937 481.427 83.2285C480.806 83.7633 480.496 84.4793 480.496 85.3765V85.8682L472.577 85.8423V85.2988C472.577 82.9525 473.681 81.0547 475.889 79.6055C478.115 78.139 481.108 77.4058 484.869 77.4058C488.665 77.4058 491.537 78.1131 493.487 79.5278C495.436 80.9253 496.411 83.1681 496.411 86.2563V97.3066C496.411 98.3418 496.497 99.3166 496.67 100.231C496.86 101.145 497.127 101.939 497.472 102.612V103H489.113C488.872 102.586 488.673 102.086 488.518 101.499C488.363 100.895 488.251 100.274 488.182 99.6357C487.612 100.602 486.594 101.473 485.128 102.25C483.679 103.009 481.859 103.388 479.667 103.388C477.062 103.388 474.966 102.75 473.379 101.473C471.809 100.196 471.024 98.2987 471.024 95.7798ZM479.409 95.1328C479.409 96.1852 479.711 97.0047 480.314 97.5913C480.936 98.1606 481.85 98.4453 483.058 98.4453C484.352 98.4453 485.49 98.0054 486.474 97.1255C487.457 96.2284 487.949 95.1932 487.949 94.02V91.9497H484.403C482.713 91.9497 481.453 92.1999 480.625 92.7002C479.814 93.2005 479.409 94.0114 479.409 95.1328ZM501.561 103V64.6475H510.101V103H501.561ZM510.023 106.235L524.723 65.3203H532.072L517.373 106.235H510.023ZM527.932 90.9146V90.0605C527.932 86.0924 529.131 82.9784 531.529 80.7183C533.944 78.4582 537.179 77.3281 541.233 77.3281C545.219 77.3281 548.272 78.2166 550.395 79.9937C552.534 81.7534 553.673 84.1515 553.811 87.188L553.836 87.7314H545.633V87.395C545.633 86.1701 545.279 85.1953 544.572 84.4707C543.864 83.7288 542.821 83.3579 541.44 83.3579C539.836 83.3579 538.611 83.9186 537.766 85.04C536.938 86.1442 536.523 87.7056 536.523 89.7241V91.2251C536.523 93.2091 536.929 94.7791 537.74 95.9351C538.568 97.091 539.793 97.6689 541.415 97.6689C542.881 97.6689 543.951 97.298 544.624 96.5562C545.314 95.8143 545.659 94.8568 545.659 93.6836V93.3472H553.836V93.8389C553.785 96.8236 552.672 99.2131 550.498 101.007C548.341 102.784 545.271 103.673 541.285 103.673C537.231 103.673 533.987 102.534 531.555 100.257C529.139 97.9622 527.932 94.8481 527.932 90.9146ZM556.14 90.9146V90.0605C556.14 86.2305 557.399 83.1509 559.918 80.8218C562.437 78.4927 565.758 77.3281 569.881 77.3281C574.022 77.3281 577.343 78.4927 579.845 80.8218C582.364 83.1509 583.623 86.2305 583.623 90.0605V90.9146C583.623 94.7791 582.364 97.876 579.845 100.205C577.343 102.517 574.022 103.673 569.881 103.673C565.741 103.673 562.411 102.517 559.892 100.205C557.39 97.876 556.14 94.7791 556.14 90.9146ZM564.731 89.7241V91.2251C564.731 93.1919 565.171 94.7533 566.051 95.9092C566.931 97.0479 568.208 97.6172 569.881 97.6172C571.555 97.6172 572.832 97.0479 573.711 95.9092C574.591 94.7533 575.031 93.1833 575.031 91.1992V89.7241C575.031 87.7746 574.583 86.2391 573.686 85.1177C572.806 83.979 571.538 83.4097 569.881 83.4097C568.225 83.4097 566.948 83.979 566.051 85.1177C565.171 86.2391 564.731 87.7746 564.731 89.7241ZM587.453 103V78.0786H595.89L595.941 81.2876H596.019C596.64 80.2007 597.477 79.3122 598.529 78.6221C599.582 77.9147 600.772 77.561 602.101 77.561C602.566 77.561 603.015 77.5955 603.446 77.6646C603.878 77.7336 604.18 77.8026 604.352 77.8716V84.3931C604.024 84.2723 603.645 84.186 603.213 84.1343C602.799 84.0825 602.333 84.0566 601.816 84.0566C600.677 84.0566 599.582 84.4103 598.529 85.1177C597.494 85.825 596.683 86.7567 596.097 87.9126V103H587.453ZM605.568 90.8887V90.0605C605.568 86.196 606.793 83.1077 609.243 80.7959C611.693 78.484 614.928 77.3281 618.948 77.3281C622.916 77.3281 625.987 78.4323 628.161 80.6406C630.352 82.849 631.447 85.8768 631.447 89.7241V92.2085H610.408V87.7314H623.218V87.4209C623.218 86.2132 622.855 85.2126 622.131 84.4189C621.406 83.6253 620.319 83.2285 618.87 83.2285C617.283 83.2285 616.075 83.8065 615.247 84.9624C614.419 86.1011 614.005 87.5417 614.005 89.2842V91.0698C614.005 93.1574 614.453 94.7878 615.351 95.9609C616.248 97.1169 617.55 97.6948 619.258 97.6948C620.483 97.6948 621.518 97.4274 622.364 96.8926C623.226 96.3577 623.899 95.6763 624.382 94.8481L631.188 97.2549C630.378 99.2217 628.997 100.783 627.048 101.939C625.098 103.095 622.528 103.673 619.336 103.673C614.988 103.673 611.607 102.526 609.191 100.231C606.776 97.9191 605.568 94.805 605.568 90.8887Z" fill="white"/>
<rect x="335" y="-15" width="375" height="56" rx="12" fill="#2D2D2D"/>
<path d="M-49.1029 -19.7434C-41.2631 -24.0855 -31.7369 -24.0855 -23.897 -19.7434L-10.9299 -12.5615C-5.85659 -9.75164 0.0118251 -8.71794 5.74118 -9.62494L20.3852 -11.9432C29.2388 -13.3448 38.1905 -10.0899 44.0709 -3.33101L53.7972 7.84828C57.6025 12.2221 62.7631 15.1986 68.4575 16.3038L83.012 19.1288C91.8116 20.8368 99.1091 26.9539 102.321 35.3144L107.633 49.1428C109.712 54.553 113.542 59.1132 118.514 62.0974L131.224 69.7249C138.908 74.3364 143.671 82.578 143.827 91.5317L144.084 106.341C144.185 112.135 146.223 117.729 149.874 122.232L159.206 133.742C164.848 140.701 166.502 150.073 163.583 158.54L158.755 172.544C156.866 178.024 156.866 183.976 158.755 189.456L163.583 203.46C166.502 211.927 164.848 221.299 159.206 228.258L149.874 239.768C146.223 244.271 144.185 249.865 144.084 255.659L143.827 270.468C143.671 279.422 138.908 287.664 131.224 292.275L118.514 299.903C113.542 302.887 109.712 307.447 107.633 312.857L102.321 326.686C99.1091 335.046 91.8116 341.163 83.012 342.871L68.4575 345.696C62.7631 346.801 57.6025 349.778 53.7972 354.152L44.0709 365.331C38.1905 372.09 29.2388 375.345 20.3851 373.943L5.74118 371.625C0.0118251 370.718 -5.85659 371.752 -10.9299 374.562L-23.8971 381.743C-31.7369 386.086 -41.2631 386.086 -49.1029 381.743L-62.0701 374.562C-67.1434 371.752 -73.0118 370.718 -78.7411 371.625L-93.3851 373.943C-102.239 375.345 -111.19 372.09 -117.071 365.331L-126.797 354.152C-130.603 349.778 -135.763 346.801 -141.457 345.696L-156.012 342.871C-164.812 341.163 -172.109 335.046 -175.321 326.686L-180.633 312.857C-182.712 307.447 -186.542 302.887 -191.514 299.903L-204.224 292.275C-211.908 287.664 -216.671 279.422 -216.827 270.468L-217.084 255.659C-217.185 249.865 -219.223 244.271 -222.874 239.768L-232.206 228.258C-237.848 221.299 -239.502 211.927 -236.583 203.46L-231.755 189.456C-229.866 183.976 -229.866 178.024 -231.755 172.544L-236.583 158.54C-239.502 150.073 -237.848 140.701 -232.206 133.742L-222.874 122.232C-219.223 117.729 -217.185 112.135 -217.084 106.341L-216.827 91.5317C-216.671 82.578 -211.908 74.3364 -204.224 69.7249L-191.514 62.0974C-186.542 59.1132 -182.712 54.553 -180.633 49.1427L-175.321 35.3144C-172.109 26.9539 -164.812 20.8368 -156.012 19.1288L-141.457 16.3038C-135.763 15.1986 -130.603 12.2221 -126.797 7.84829L-117.071 -3.33102C-111.19 -10.0899 -102.239 -13.3448 -93.3851 -11.9432L-78.7411 -9.62494C-73.0118 -8.71794 -67.1434 -9.75165 -62.0701 -12.5615L-49.1029 -19.7434Z" stroke="#313131" stroke-width="5"/>
<path d="M411.45 24.125L394.913 7.5875C393.6 8.6375 392.091 9.46875 390.384 10.0812C388.678 10.6937 386.863 11 384.938 11C380.169 11 376.133 9.348 372.831 6.044C369.529 2.74 367.877 -1.2955 367.875 -6.0625C367.873 -10.8295 369.525 -14.865 372.831 -18.169C376.137 -21.473 380.172 -23.125 384.938 -23.125C389.703 -23.125 393.739 -21.473 397.047 -18.169C400.354 -14.865 402.005 -10.8295 402 -6.0625C402 -4.1375 401.694 -2.32187 401.081 -0.615625C400.469 1.09062 399.638 2.6 398.588 3.9125L415.125 20.45L411.45 24.125ZM384.938 5.75C388.219 5.75 391.008 4.602 393.306 2.306C395.604 0.00999832 396.752 -2.7795 396.75 -6.0625C396.748 -9.3455 395.6 -12.1341 393.306 -14.4284C391.012 -16.7226 388.222 -17.8715 384.938 -17.875C381.653 -17.8785 378.864 -16.7296 376.572 -14.4284C374.279 -12.1271 373.13 -9.3385 373.125 -6.0625C373.12 -2.7865 374.269 0.00299835 376.572 2.306C378.875 4.609 381.663 5.757 384.938 5.75Z" fill="white"/>
<path d="M46.5238 66.7097C43.8939 66.7097 41.7619 68.8327 41.7619 71.4516L41.7619 115.145C41.7619 117.764 43.8939 119.887 46.5238 119.887H81.2177C82.3448 119.887 83.2585 118.977 83.2585 117.855L83.2586 107.016C83.2586 104.023 85.6951 101.597 88.7007 101.597H130.878C132.005 101.597 132.918 100.687 132.918 99.5645V71.4516C132.918 68.8327 130.786 66.7097 128.156 66.7097H46.5238Z" fill="#4D7186"/>
<path d="M37 48.4194C37 45.4263 39.4365 43 42.4422 43H131.558C134.563 43 137 45.4263 137 48.4194V57.9032C137 60.8963 134.563 63.3226 131.558 63.3226H42.4422C39.4365 63.3226 37 60.8963 37 57.9032V48.4194Z" fill="#5EBBFF"/>
<path d="M87 108.71C87 106.839 88.5228 105.323 90.4014 105.323H133.599C135.477 105.323 137 106.839 137 108.71V123.613C137 125.484 135.477 127 133.599 127H90.4014C88.5228 127 87 125.484 87 123.613V108.71Z" fill="#45A6FF"/>
<path d="M607.652 149.548C591.691 133.978 609.345 107.917 629.724 116.965C637.365 120.357 646.309 118.636 652.147 112.652C667.717 96.6912 693.777 114.345 684.73 134.724C681.338 142.365 683.058 151.309 689.042 157.147C705.003 172.717 687.35 198.777 666.97 189.73C659.33 186.338 650.385 188.058 644.548 194.042C628.978 210.003 602.917 192.35 611.965 171.97C615.357 164.33 613.636 155.385 607.652 149.548Z" fill="#353B41"/>
</g>
</g>
<defs>
<filter id="filter0_d_64_2" x="0" y="0" width="670" height="170" filterUnits="userSpaceOnUse" color-interpolation-filters="sRGB">
<feFlood flood-opacity="0" result="BackgroundImageFix"/>
<feColorMatrix in="SourceAlpha" type="matrix" values="0 0 0 0 0 0 0 0 0 0 0 0 0 0 0 0 0 0 127 0" result="hardAlpha"/>
<feMorphology radius="1" operator="dilate" in="SourceAlpha" result="effect1_dropShadow_64_2"/>
<feOffset/>
<feComposite in2="hardAlpha" operator="out"/>
<feColorMatrix type="matrix" values="0 0 0 0 0.516667 0 0 0 0 0.516667 0 0 0 0 0.516667 0 0 0 0.25 0"/>
<feBlend mode="normal" in2="BackgroundImageFix" result="effect1_dropShadow_64_2"/>
<feBlend mode="normal" in="SourceGraphic" in2="effect1_dropShadow_64_2" result="shape"/>
</filter>
<clipPath id="clip0_64_2">
<rect x="1" y="1" width="668" height="168" rx="16" fill="white"/>
</clipPath>
</defs>
</svg>
